# xmcd
#
# Track frame offsets:
#	150
#	16254
#	33813
#	44851
#	59459
#	75922
#	91690
#	99025
#	125403
#	142735
#	165674
#	177510
#	192660
#	217882
#
# Disc length: 3138 seconds
#
# Revision: 0
# Processed by: cddbd v1.5.2PL0 Copyright (c) Steve Scherf et al.
# Submitted via: dBpowerAMP V4.0
#
DISCID=ac0c400e
DTITLE=West of Memphis - Honey Pie
DYEAR=2007
DGENRE=Blues
TTITLE0=Canary In Her Cage
TTITLE1=Back Door Friend
TTITLE2=Who
TTITLE3=I'm Having A Ball
TTITLE4=Honey Pie
TTITLE5=I'm Ready
TTITLE6=Guru Callin'
TTITLE7=Cell Phone Blues
TTITLE8=Crosseyed Cat
TTITLE9=I Can Tell
TTITLE10=I've Got To Go
TTITLE11=Miss Sugarpuss Boogie
TTITLE12=That's Alright
TTITLE13=Chupacabra
EXTD=
EXTT0=
EXTT1=
EXTT2=
EXTT3=
EXTT4=
EXTT5=
EXTT6=
EXTT7=
EXTT8=
EXTT9=
EXTT10=
EXTT11=
EXTT12=
EXTT13=
PLAYORDER=
